{"glyphs":{" ":{"ha":0,"x_min":0,"x_max":0,"o":""},"A":{"ha":1743,"x_min":0,"x_max":0,"o":"m 838 44 l 353 44 b 201 108 293 44 243 65 b 139 258 160 150 139 200 l 139 758 b 201 910 139 818 160 868 b 353 972 243 951 293 972 l 1389 972 b 1542 910 1449 972 1499 951 b 1604 758 1583 868 1604 818 l 1604 258 b 1542 108 1604 200 1583 150 b 1389 44 1499 65 1449 44 l 904 44 l 904 -194 l 1204 -194 b 1222 -212 1217 -194 1222 -200 l 1222 -243 b 1204 -261 1222 -256 1217 -261 l 538 -261 b 519 -243 525 -261 519 -256 l 519 -212 b 538 -194 519 -200 525 -194 l 838 -194 "},"B":{"ha":1792,"x_min":0,"x_max":0,"o":"m 1361 914 b 1483 792 1428 914 1483 858 l 1483 207 l 350 207 l 350 792 b 472 914 350 858 404 914 m 1500 140 l 1640 -40 b 1565 -200 1706 -125 1672 -200 l 268 -200 b 193 -40 161 -200 128 -125 l 333 140 m 1096 -121 b 1114 -101 1108 -121 1114 -114 l 1114 -79 b 1096 -61 1114 -67 1108 -61 l 738 -61 b 719 -79 725 -61 719 -67 l 719 -101 b 738 -121 719 -114 725 -121 "},"C":{"ha":853,"x_min":0,"x_max":0,"o":"m 542 906 b 664 856 589 906 629 889 b 714 733 697 822 714 782 l 714 -26 b 664 -149 714 -75 697 -115 b 542 -199 629 -182 589 -199 l 311 -199 b 190 -149 264 -199 224 -182 b 139 -26 156 -115 139 -75 l 139 733 b 190 856 139 782 156 822 b 311 906 224 889 264 906 m 528 726 b 546 744 540 726 546 732 l 546 774 b 528 793 546 786 540 793 l 326 793 b 308 774 314 793 308 786 l 308 744 b 326 726 308 732 314 726 m 426 28 b 358 -40 389 28 358 -3 b 426 -110 358 -79 389 -110 b 496 -40 465 -110 496 -79 b 426 28 496 -3 465 28 "},"D":{"ha":1128,"x_min":0,"x_max":0,"o":"m 824 906 b 940 857 869 906 908 889 b 989 740 972 825 989 786 l 989 -49 b 940 -165 989 -94 972 -133 b 824 -214 908 -197 869 -214 l 304 -214 b 188 -165 258 -214 219 -197 b 139 -49 156 -133 139 -94 l 139 740 b 188 857 139 786 156 825 b 304 906 219 889 258 906 m 613 -21 b 517 -21 585 7 543 7 b 517 -117 489 -47 489 -89 b 613 -117 543 -143 585 -143 b 613 -21 639 -89 639 -47 "},"E":{"ha":831,"x_min":0,"x_max":0,"o":"m 518 890 b 581 864 550 933 588 918 l 503 410 l 688 410 b 719 343 732 410 747 381 l 332 -176 b 272 -150 300 -219 263 -204 l 347 304 l 163 304 b 131 371 118 304 103 333 "},"F":{"ha":1165,"x_min":0,"x_max":0,"o":"m 393 838 b 431 800 414 838 431 821 l 431 663 l 139 663 l 139 800 b 178 838 139 821 156 838 m 989 838 b 1026 800 1010 838 1026 821 l 1026 663 l 735 663 l 735 800 b 774 838 735 821 751 838 m 139 597 l 431 597 l 431 288 b 583 136 431 193 506 136 b 735 288 660 136 735 193 l 735 597 l 1026 597 l 1026 288 b 139 288 1026 -296 139 -296 "},"G":{"ha":1272,"x_min":0,"x_max":0,"o":"m 636 846 b 988 701 774 846 890 797 b 1133 349 1085 604 1133 486 b 1038 56 1133 242 1101 143 l 761 275 b 782 349 775 300 782 325 b 636 494 782 428 718 494 b 617 493 631 494 621 493 l 528 833 b 636 846 563 842 599 846 m 554 472 l 276 692 b 465 815 331 749 394 789 m 511 422 b 490 349 497 397 490 372 b 636 203 490 269 554 203 b 656 204 640 203 651 204 l 744 -136 b 636 -149 710 -144 674 -149 b 285 -4 499 -149 382 -100 b 139 349 188 93 139 211 b 235 642 139 456 171 554 m 581 404 b 692 404 613 436 660 436 b 692 293 724 372 724 325 b 581 293 660 261 613 261 b 581 404 549 325 549 372 m 718 225 l 996 6 b 807 -118 942 -51 878 -92 "},"H":{"ha":1321,"x_min":0,"x_max":0,"o":"m 661 869 b 1029 717 804 869 928 818 b 1182 347 1131 615 1182 492 b 1029 -22 1182 203 1131 79 b 661 -175 928 -124 804 -175 b 292 -22 517 -175 393 -124 b 139 347 190 79 139 203 b 292 717 139 492 190 615 b 661 869 393 818 517 869 m 474 550 b 401 478 435 550 401 518 b 474 406 401 439 435 406 b 547 478 514 406 547 439 b 474 550 547 518 514 550 m 899 529 b 775 478 854 574 775 542 b 847 406 775 439 807 406 b 919 478 888 406 919 439 b 899 529 919 499 913 515 m 975 158 b 971 183 982 168 981 176 l 946 200 b 921 194 935 206 926 204 b 661 56 860 101 774 56 b 401 194 549 56 463 101 b 376 200 394 204 386 207 l 351 183 b 346 158 342 176 339 168 b 540 8 394 85 458 35 b 782 8 621 -19 701 -19 b 975 158 863 35 926 85 "},"I":{"ha":1468,"x_min":0,"x_max":0,"o":"m 390 621 l 139 621 l 139 688 l 390 688 l 390 933 l 456 933 l 456 688 l 1017 688 b 1029 686 1022 688 1026 688 l 1278 935 l 1325 888 l 1076 639 b 1078 626 1078 636 1078 632 l 1078 65 l 1329 65 l 1329 0 l 1078 0 l 1078 -247 l 1011 -247 l 1011 0 l 451 0 b 390 61 418 0 390 28 m 456 113 l 965 621 l 456 621 m 1011 65 l 1011 575 l 503 65 "},"J":{"ha":1413,"x_min":0,"x_max":0,"o":"m 739 814 l 739 381 l 1172 381 l 1069 483 l 1115 531 l 1256 390 b 1256 304 1279 367 1279 328 l 1115 164 l 1069 210 l 1172 314 l 739 314 l 739 -119 l 843 -17 l 889 -62 l 749 -203 b 663 -203 725 -226 686 -226 l 522 -62 l 569 -17 l 674 -119 l 674 314 l 239 314 l 343 210 l 296 164 l 156 304 b 156 390 132 328 132 367 l 296 531 l 343 483 l 239 381 l 674 381 l 674 814 l 569 710 l 522 757 l 663 897 b 749 897 686 921 725 921 l 889 757 l 843 710 "},"K":{"ha":1542,"x_min":0,"x_max":0,"o":"m 1254 763 b 1403 615 1336 763 1403 697 l 139 615 b 286 763 139 694 204 763 m 1403 394 l 1403 140 b 1254 -7 1403 58 1336 -7 l 286 -7 b 139 140 204 -7 139 61 l 139 394 "},"L":{"ha":1633,"x_min":0,"x_max":0,"o":"m 1465 354 b 1503 304 1489 365 1519 336 b 1321 133 1461 226 1400 169 b 1075 106 1240 97 1158 88 b 876 229 992 122 925 164 b 782 229 849 267 811 267 b 583 106 733 164 667 122 b 339 133 500 88 418 97 b 156 304 258 169 197 226 b 193 354 139 336 169 365 b 233 350 201 351 215 350 b 457 507 325 353 393 440 b 631 590 501 553 564 590 b 829 474 744 590 778 474 b 1028 590 881 474 914 590 b 1268 438 1135 590 1204 504 b 1425 350 1311 392 1365 351 b 1465 354 1443 350 1457 351 "},"M":{"ha":1413,"x_min":0,"x_max":0,"o":"m 1140 883 b 1265 768 1222 965 1342 844 l 993 496 l 1029 -153 b 997 -221 1031 -193 1021 -215 b 943 -172 974 -225 956 -210 l 801 306 l 556 58 l 599 -144 b 539 -165 606 -179 565 -193 b 385 13 467 -78 415 -18 b 203 171 353 43 293 96 b 235 214 179 199 197 224 l 429 172 l 688 431 l 206 572 b 156 614 171 583 154 597 b 215 644 158 632 178 642 l 236 644 l 868 610 "},"N":{"ha":1090,"x_min":0,"x_max":0,"o":"m 210 814 b 249 851 210 835 226 851 l 744 851 l 744 -142 l 249 -142 b 210 -103 226 -142 210 -125 l 210 8 l 158 8 b 140 26 146 8 140 14 l 140 57 b 158 75 140 69 146 75 l 210 75 l 210 218 l 157 218 b 139 236 144 218 139 224 l 139 265 b 157 283 139 278 144 283 l 210 283 l 210 426 l 157 426 b 139 444 144 426 139 432 l 139 475 b 157 493 139 488 144 493 l 210 493 l 210 636 l 157 636 b 139 654 144 636 139 642 l 139 683 b 157 701 139 696 144 701 l 210 701 m 811 851 b 951 713 889 851 951 790 l 951 -1 b 811 -142 951 -81 889 -142 m 282 683 b 264 701 282 696 276 701 l 213 701 l 213 636 l 264 636 b 282 654 276 636 282 642 m 213 426 l 264 426 b 282 444 276 426 282 432 l 282 475 b 264 493 282 488 276 493 l 213 493 m 283 265 b 265 283 283 278 278 283 l 213 283 l 213 218 l 265 218 b 283 236 278 218 283 224 m 283 57 b 265 75 283 69 278 75 l 213 75 l 213 8 l 265 8 b 283 26 278 8 283 14 "},"O":{"ha":1267,"x_min":0,"x_max":0,"o":"m 931 735 b 681 836 847 640 672 713 b 826 982 681 918 747 982 b 972 836 906 982 972 918 b 931 735 972 796 958 763 m 886 897 b 767 897 853 929 800 929 b 767 776 733 864 733 808 b 886 776 800 743 853 743 b 886 897 919 808 919 864 m 643 624 b 547 624 615 596 574 596 b 547 719 519 650 519 692 b 643 719 574 746 615 746 b 643 624 669 692 669 650 m 1111 -57 b 1150 -200 1157 -103 1171 -150 b 1018 -274 1129 -249 1086 -274 l 308 -274 b 176 -200 240 -274 197 -249 b 215 -57 156 -150 169 -103 l 449 175 l 449 508 b 378 569 449 560 429 569 b 360 588 365 569 360 575 l 360 618 b 379 636 360 631 367 636 b 515 508 468 632 515 599 l 515 496 b 658 500 547 483 596 485 b 811 508 724 518 775 521 b 947 636 811 599 858 632 b 967 618 960 636 967 631 l 967 588 b 949 569 967 575 961 569 b 878 508 897 569 878 560 l 878 175 "},"P":{"ha":1417,"x_min":0,"x_max":0,"o":"m 1111 708 b 1278 306 1222 597 1278 463 b 1038 -160 1278 118 1189 -50 b 1011 -156 1028 -167 1018 -165 l 994 -132 b 999 -107 988 -122 989 -114 b 1128 25 1050 -69 1093 -26 l 1072 58 b 1065 82 1061 63 1058 71 l 1081 108 b 1106 115 1088 118 1096 121 l 1161 83 b 1211 272 1190 144 1207 207 l 1147 272 b 1129 290 1135 272 1129 278 l 1129 321 b 1147 339 1129 333 1135 339 l 1211 339 b 1161 528 1207 404 1190 468 l 1106 496 b 1081 503 1094 490 1086 493 l 1065 529 b 1072 553 1058 540 1061 549 l 1128 586 b 989 724 1089 642 1043 688 l 957 668 b 932 663 950 658 942 656 l 906 676 b 899 701 896 683 893 692 l 932 757 b 742 808 872 788 808 804 l 742 744 b 724 726 742 732 736 726 l 694 726 b 675 744 682 726 675 732 l 675 808 b 486 757 610 804 546 788 l 518 701 b 511 676 525 692 522 683 l 486 663 b 461 668 475 657 467 658 l 429 724 b 290 586 374 688 328 642 l 346 553 b 353 529 357 547 360 539 l 338 503 b 313 496 332 493 324 490 l 257 528 b 206 339 228 472 211 410 l 271 339 b 289 321 283 339 289 333 l 289 290 b 271 272 289 278 283 272 l 206 272 b 257 83 211 204 228 140 l 313 115 b 338 108 322 121 331 118 l 353 82 b 346 58 360 72 357 64 l 290 25 b 419 -107 322 -24 365 -68 b 424 -132 429 -112 431 -121 l 406 -156 b 381 -160 399 -165 390 -167 b 139 306 229 -50 139 118 b 306 708 139 463 194 597 b 708 875 417 819 551 875 b 1111 708 865 875 1000 819 m 708 378 b 657 254 644 378 613 300 b 782 306 701 207 782 242 b 774 339 782 318 779 329 l 908 536 b 903 561 915 546 913 554 l 879 578 b 853 574 869 585 860 583 l 721 378 l 708 378 "},"Q":{"ha":1000,"x_min":0,"x_max":0,"o":"m 668 924 b 706 886 689 924 706 907 l 706 729 b 294 729 583 799 417 799 l 294 886 b 333 924 294 907 311 924 m 244 611 b 500 717 315 682 400 717 b 756 611 600 717 685 682 b 861 356 826 540 861 454 b 756 100 861 256 826 171 b 500 -6 685 29 600 -6 b 244 100 400 -6 315 29 b 139 356 174 171 139 256 b 244 611 139 454 174 540 m 503 393 l 394 490 b 369 490 385 500 376 500 l 349 468 b 350 443 339 458 340 450 b 500 306 388 408 463 340 l 724 492 b 726 517 733 499 733 507 l 707 539 b 682 542 700 549 692 550 m 333 -212 b 294 -175 311 -212 294 -196 l 294 -18 b 706 -18 417 -87 583 -87 l 706 -175 b 668 -212 706 -196 689 -212 "},"R":{"ha":1275,"x_min":0,"x_max":0,"o":"m 513 828 b 649 846 558 840 604 846 b 985 715 778 846 890 803 b 715 524 914 633 824 569 b 513 828 656 639 588 740 m 654 500 b 157 438 518 454 353 433 b 446 803 186 600 296 738 b 654 500 522 718 592 618 m 746 464 b 1031 668 858 513 954 581 b 1147 343 1110 572 1149 464 b 793 354 1024 371 906 375 b 746 464 782 383 767 421 m 728 339 b 285 3 546 288 399 176 b 150 372 188 107 143 231 b 683 440 358 365 536 389 b 728 339 692 422 707 389 m 818 290 b 1143 276 918 308 1026 303 b 917 -75 1122 131 1038 3 b 818 290 893 50 861 172 m 856 -108 b 649 -153 788 -137 718 -153 b 335 -42 531 -153 426 -115 b 753 276 440 125 579 231 b 856 -108 797 157 832 29 "},"S":{"ha":1358,"x_min":0,"x_max":0,"o":"m 164 661 b 164 728 131 679 131 710 l 401 858 b 468 858 424 871 446 871 l 608 782 l 274 599 m 878 854 b 944 854 900 867 922 867 l 1193 719 b 1193 653 1228 701 1228 671 l 1090 597 l 747 782 m 1021 560 l 676 371 l 342 560 l 678 744 m 608 335 l 471 258 b 424 258 456 251 439 251 l 168 399 b 168 465 133 419 133 444 l 274 524 m 1090 522 l 1190 468 b 1190 401 1225 447 1225 422 l 928 257 b 881 258 913 249 896 249 l 744 333 m 288 22 l 288 257 l 417 186 b 475 186 436 176 456 176 l 643 278 l 643 -154 m 872 185 b 932 185 892 175 911 175 l 1071 261 l 1071 28 l 710 -154 l 710 278 "},"T":{"ha":1229,"x_min":0,"x_max":0,"o":"m 829 682 b 878 781 831 721 847 754 b 976 821 907 807 940 821 b 1081 776 1013 819 1047 806 b 1085 574 1138 710 1139 633 b 986 525 1058 543 1025 526 b 974 489 965 526 958 501 l 1092 372 b 1092 303 1115 349 1115 326 l 674 -115 b 604 -115 650 -139 628 -139 l 189 300 b 189 368 167 322 167 344 l 307 486 b 343 474 322 501 342 494 b 594 379 351 351 504 286 b 501 631 688 472 624 624 b 488 667 481 632 475 651 l 604 785 b 674 786 628 808 650 810 l 793 668 b 829 682 806 656 829 664 "},"U":{"ha":1428,"x_min":0,"x_max":0,"o":"m 1060 93 b 1035 100 1049 88 1040 90 l 1019 125 b 1026 150 1014 136 1017 144 b 1140 215 1056 168 1094 189 b 1185 221 1154 224 1169 225 b 1222 194 1200 218 1213 210 l 1293 83 b 1288 58 1299 74 1297 65 l 1263 43 b 1238 49 1251 36 1243 39 l 1196 119 b 722 -242 1128 -118 924 -247 b 249 119 521 -247 317 -118 l 207 49 b 182 43 201 39 193 36 l 157 58 b 151 83 147 65 146 74 l 222 194 b 260 221 232 210 244 218 b 304 215 275 225 290 224 b 418 150 350 189 389 168 b 425 125 428 144 431 136 l 410 100 b 385 93 404 90 396 88 l 313 138 b 458 -87 339 42 388 -33 b 693 -176 528 -142 606 -171 l 693 439 l 532 439 b 514 457 519 439 514 444 l 514 488 b 532 506 514 500 519 506 l 693 506 l 693 589 b 557 756 614 604 557 674 b 607 875 557 801 574 842 b 726 925 640 908 681 925 b 847 875 774 925 814 908 b 896 756 879 842 896 801 b 760 589 896 674 839 604 l 760 506 l 921 506 b 939 488 933 506 939 500 l 939 457 b 921 439 939 444 933 439 l 760 439 l 760 -175 b 1132 138 932 -160 1081 -50 m 654 829 b 654 682 614 789 614 722 b 800 682 693 642 760 642 b 800 829 840 722 840 789 b 654 829 760 868 693 868 "},"V":{"ha":1038,"x_min":0,"x_max":0,"o":"m 479 908 b 628 846 528 967 632 921 b 479 785 632 774 528 726 b 479 908 444 818 444 874 m 189 -31 b 165 11 160 -31 151 -17 b 260 414 228 129 260 264 b 819 414 260 817 819 817 b 914 11 819 264 851 129 b 890 -31 928 -17 919 -31 m 679 -97 b 400 -97 649 -236 431 -236 "},"W":{"ha":1321,"x_min":0,"x_max":0,"o":"m 750 822 b 790 810 760 813 774 808 l 883 822 b 910 803 899 824 908 818 l 926 710 b 951 676 931 693 939 682 l 1035 632 b 1044 599 1047 624 1051 613 l 1003 515 b 1003 472 997 501 997 488 l 1044 389 b 1035 356 1051 375 1047 364 l 951 311 b 926 278 939 306 931 294 l 910 185 b 883 165 908 169 899 164 l 790 178 b 750 165 775 181 761 176 l 682 99 b 647 99 669 89 658 89 l 579 165 b 540 178 567 176 553 181 l 446 165 b 418 185 431 164 422 169 l 403 278 b 378 311 399 293 390 304 l 294 356 b 283 389 281 364 276 375 l 325 472 b 325 515 332 488 332 501 l 283 599 b 294 632 276 613 281 624 l 378 676 b 403 710 390 683 399 694 l 418 803 b 446 822 421 818 431 824 l 540 810 b 579 822 554 808 567 813 l 647 889 b 682 889 658 899 669 899 m 544 115 l 426 99 b 358 149 394 94 364 117 l 340 261 l 333 265 l 154 58 b 174 17 133 36 144 15 l 314 19 l 357 -129 b 403 -135 367 -158 388 -161 m 1000 263 l 988 257 l 967 144 b 899 96 961 113 931 90 l 785 117 l 928 -135 b 974 -129 943 -161 964 -158 l 1018 19 l 1158 17 b 1178 58 1188 15 1196 36 "},"X":{"ha":1417,"x_min":0,"x_max":0,"o":"m 553 596 b 632 618 583 607 610 614 l 794 899 b 836 922 804 914 818 922 l 1254 922 b 1279 881 1282 922 1292 904 l 1038 463 b 1129 199 1099 385 1129 297 b 1006 -103 1129 81 1088 -19 b 704 -226 922 -185 822 -226 b 404 -103 586 -226 486 -185 b 279 199 321 -19 279 81 b 383 478 279 306 314 399 l 151 881 b 176 922 139 904 149 922 l 574 922 b 615 899 592 922 606 914 l 672 801 m 769 374 b 750 394 769 388 763 394 l 721 394 b 693 386 714 394 704 392 l 578 319 b 569 293 565 313 563 304 l 583 267 b 614 258 590 254 600 251 l 696 304 l 696 -4 b 717 -24 696 -17 703 -24 l 750 -24 b 769 -4 763 -24 769 -17 "},"Y":{"ha":1190,"x_min":0,"x_max":0,"o":"m 806 600 b 865 578 826 626 858 613 b 969 383 878 511 928 433 b 1058 189 1011 333 1053 257 b 775 -201 1072 -6 940 -146 b 281 -101 608 -258 408 -233 b 149 264 188 -7 138 132 b 201 275 150 297 181 301 b 310 188 236 233 272 204 b 357 197 328 179 343 182 b 365 244 371 211 374 226 b 310 453 333 311 314 381 b 410 760 306 571 339 672 b 686 932 481 847 572 904 b 715 889 715 939 731 917 b 657 713 686 838 667 778 b 697 475 642 615 656 536 b 750 449 713 451 731 442 b 776 500 769 454 778 471 b 806 600 774 533 783 567 "},"Z":{"ha":1335,"x_min":0,"x_max":0,"o":"m 596 867 b 769 867 653 876 711 876 l 769 608 b 596 608 711 629 653 629 m 529 576 b 451 499 500 558 475 532 l 176 499 b 529 851 228 667 361 800 m 836 851 b 1189 499 1004 800 1138 667 l 914 499 b 836 576 890 532 865 558 m 161 258 b 161 432 151 315 151 374 l 419 432 b 419 258 399 374 399 315 m 946 258 b 946 432 967 317 967 375 l 1204 432 b 1204 258 1214 375 1214 317 m 529 -160 b 176 192 361 -110 228 24 l 451 192 b 529 114 472 161 499 135 m 1189 192 b 836 -160 1138 24 1004 -110 l 836 114 b 914 192 867 135 893 161 m 769 -176 b 596 -176 711 -185 653 -185 l 596 82 b 769 82 653 61 711 61 "},"a":{"ha":1132,"x_min":0,"x_max":0,"o":"m 590 -217 b 538 -217 578 -235 550 -235 l 211 260 b 139 504 163 331 139 413 b 264 806 139 622 181 722 b 565 931 347 889 447 931 b 868 806 683 931 783 889 b 993 504 951 722 993 622 b 913 254 993 417 967 333 m 735 674 b 565 743 688 719 631 743 b 397 674 500 743 443 719 b 326 504 350 626 326 569 b 397 335 326 439 350 382 b 565 264 443 288 500 264 b 735 335 631 264 688 288 b 806 504 782 382 806 439 b 735 674 806 569 782 626 m 565 676 b 689 626 614 676 654 660 b 739 504 722 592 739 551 b 689 382 739 456 722 415 b 565 331 654 347 614 331 b 444 382 518 331 478 347 b 393 504 410 415 393 456 b 444 626 393 551 410 592 b 565 676 478 660 518 676 "},"b":{"ha":1608,"x_min":0,"x_max":0,"o":"m 1308 906 b 1469 744 1397 906 1469 833 l 1469 363 b 1300 194 1469 265 1413 210 l 1300 68 b 1235 39 1300 31 1261 13 l 1060 201 l 682 201 b 569 249 639 201 601 217 b 521 363 538 281 521 318 l 521 744 b 569 858 521 789 538 826 b 682 906 601 890 639 906 m 454 363 b 522 203 454 300 476 247 b 682 135 567 157 619 135 l 993 135 b 850 -24 993 44 939 -24 l 494 -24 l 357 -169 b 292 -142 331 -197 292 -179 l 292 -35 b 139 119 201 -24 139 31 l 139 465 b 282 610 139 544 203 610 l 454 610 "},"c":{"ha":1157,"x_min":0,"x_max":0,"o":"m 1018 -28 b 969 -146 1018 -74 1001 -114 b 851 -194 936 -178 897 -194 l 307 -194 b 189 -146 261 -194 221 -178 b 139 -28 156 -112 139 -74 l 139 739 b 189 857 139 785 156 824 b 307 906 221 889 261 906 l 699 906 l 699 649 b 760 588 699 614 726 588 l 1018 588 m 1006 647 l 758 647 l 758 893 m 807 389 b 825 407 819 389 825 394 l 825 436 b 807 456 825 449 819 456 l 350 456 b 332 436 338 456 332 449 l 332 407 b 350 389 332 394 338 389 m 807 188 b 825 206 819 188 825 193 l 825 235 b 807 253 825 247 819 253 l 350 253 b 332 235 338 253 332 247 l 332 206 b 350 188 332 193 338 188 m 807 -17 b 825 1 819 -17 825 -11 l 825 31 b 807 49 825 43 819 49 l 350 49 b 332 31 338 49 332 43 l 332 1 b 350 -17 332 -11 338 -17 "},"d":{"ha":1157,"x_min":0,"x_max":0,"o":"m 1018 -28 b 969 -146 1018 -74 1001 -114 b 850 -194 936 -178 896 -194 l 306 -194 b 139 -28 214 -194 139 -119 l 139 739 b 306 906 139 831 214 906 l 711 906 l 711 660 b 771 600 711 626 738 600 l 1018 600 m 992 660 l 771 660 l 771 881 "},"e":{"ha":1408,"x_min":0,"x_max":0,"o":"m 818 863 b 933 810 882 857 911 849 b 964 731 949 781 950 775 b 978 682 971 707 975 692 l 1115 682 b 1269 526 1200 682 1269 614 l 1269 6 b 1115 -151 1269 -82 1200 -151 l 294 -151 b 185 -106 251 -151 215 -136 b 139 6 154 -74 139 -37 l 139 526 b 294 682 139 611 210 682 l 431 682 b 460 775 438 703 453 757 b 476 810 463 783 468 794 b 590 863 497 847 526 857 m 704 572 b 506 489 626 572 560 544 b 422 289 450 433 422 367 b 506 90 422 211 450 144 b 704 8 561 35 628 7 b 904 92 782 8 849 36 b 986 292 960 147 988 214 b 903 489 985 368 957 435 b 704 572 847 543 781 571 m 706 508 b 858 444 765 508 815 488 b 922 292 901 401 922 351 b 858 138 922 232 901 181 b 706 72 815 94 765 72 b 551 138 646 72 594 94 b 486 292 508 181 486 232 b 551 444 486 351 508 401 b 706 508 594 488 646 508 "},"f":{"ha":1317,"x_min":0,"x_max":0,"o":"m 999 828 b 1125 775 1047 828 1090 810 b 1178 649 1160 740 1178 697 l 1178 232 b 1125 106 1178 183 1160 140 b 999 53 1090 71 1047 53 l 589 53 l 399 -125 b 324 -92 367 -153 324 -135 l 324 49 b 139 232 214 61 139 125 l 139 649 b 192 775 139 697 157 740 b 318 828 226 810 269 828 "},"g":{"ha":1317,"x_min":0,"x_max":0,"o":"m 999 842 b 1125 789 1047 842 1090 824 b 1178 663 1160 754 1178 711 l 1178 246 b 1125 119 1178 197 1160 154 b 999 67 1090 85 1047 67 l 589 67 l 399 -111 b 324 -78 367 -139 324 -121 l 324 63 b 139 246 214 75 139 139 l 139 663 b 192 789 139 711 157 754 b 318 842 226 824 269 842 m 960 604 b 978 622 972 604 978 610 l 978 651 b 960 669 978 664 972 669 l 356 669 b 338 651 343 669 338 664 l 338 622 b 356 604 338 610 343 604 m 960 421 b 978 439 972 421 978 426 l 978 469 b 960 488 978 482 972 488 l 356 488 b 338 469 343 488 338 482 l 338 439 b 356 421 338 426 343 421 m 754 239 b 772 257 767 239 772 244 l 772 286 b 754 304 772 299 767 304 l 356 304 b 338 286 343 304 338 299 l 338 257 b 356 239 338 244 343 239 "},"h":{"ha":1336,"x_min":0,"x_max":0,"o":"m 389 157 b 521 25 297 65 432 -64 l 1072 576 b 1043 847 1172 675 1129 803 b 840 808 988 882 903 871 l 285 253 b 618 -81 50 18 388 -311 l 1061 363 b 1086 363 1069 371 1078 371 l 1108 342 b 1108 315 1118 332 1118 324 l 665 -128 b 238 300 375 -418 -60 3 l 794 856 b 1119 529 1021 1082 1349 758 l 568 -22 b 343 203 418 -172 188 54 l 779 640 b 806 640 788 649 796 649 l 826 618 b 826 593 836 611 836 603 "},"i":{"ha":1375,"x_min":0,"x_max":0,"o":"m 606 476 b 729 844 565 621 607 763 b 1079 854 831 911 964 917 b 1079 813 1097 844 1096 824 l 914 711 b 885 661 892 696 882 679 b 985 489 894 596 928 539 b 1040 492 997 478 1017 479 l 1200 582 b 1236 561 1217 592 1236 579 b 1119 308 1236 450 1197 365 b 818 256 1040 249 939 231 l 388 -175 b 168 39 272 -293 60 -69 m 297 -18 b 265 -50 281 -18 265 -33 b 297 -82 265 -68 281 -82 b 332 -50 318 -82 332 -68 b 297 -18 332 -33 315 -18 "},"j":{"ha":1475,"x_min":0,"x_max":0,"o":"m 1339 -179 b 1339 -225 1354 -194 1354 -210 l 1318 -246 b 1274 -246 1303 -261 1289 -261 l 919 108 b 617 0 832 36 732 0 b 279 140 485 0 372 47 b 139 478 186 233 139 346 b 279 815 139 610 186 722 b 617 954 372 908 485 954 b 954 815 749 954 861 908 b 1093 478 1047 722 1093 610 b 985 175 1093 363 1057 263 "},"k":{"ha":1475,"x_min":0,"x_max":0,"o":"m 1339 -179 b 1339 -225 1354 -194 1354 -210 l 1318 -246 b 1274 -246 1303 -261 1289 -261 l 918 110 b 615 0 832 36 731 0 b 279 140 483 0 372 47 b 139 478 186 233 139 346 b 279 815 139 610 186 722 b 615 954 372 908 483 954 b 954 815 747 954 861 908 b 1093 478 1047 722 1093 610 b 985 175 1093 365 1057 264 m 822 493 b 804 511 822 506 817 511 l 647 511 l 647 667 b 629 685 647 679 642 685 l 599 685 b 581 667 586 685 581 679 l 581 511 l 425 511 b 407 493 413 511 407 506 l 407 463 b 425 444 407 450 413 444 l 581 444 l 581 288 b 599 269 581 275 586 269 l 629 269 b 647 288 642 269 647 275 l 647 444 l 804 444 b 822 463 817 444 822 450 "},"l":{"ha":1475,"x_min":0,"x_max":0,"o":"m 1339 -179 b 1339 -225 1354 -194 1354 -210 l 1318 -246 b 1274 -246 1303 -261 1289 -261 l 918 110 b 617 0 832 36 732 0 b 279 140 485 0 372 47 b 139 478 186 233 139 346 b 279 815 139 610 186 722 b 617 954 372 908 485 954 b 954 815 749 954 861 908 b 1093 478 1047 722 1093 610 b 985 175 1093 365 1057 264 m 824 493 b 806 511 824 506 818 511 l 426 511 b 408 493 414 511 408 506 l 408 463 b 426 444 408 450 414 444 l 806 444 b 824 463 818 444 824 450 "},"m":{"ha":1424,"x_min":0,"x_max":0,"o":"m 522 344 l 671 508 b 771 661 714 556 747 607 b 838 871 793 715 815 785 b 921 893 850 921 892 928 b 958 776 943 869 956 831 b 946 624 960 722 956 672 b 908 501 935 575 922 533 b 931 469 901 485 914 469 l 1194 469 b 1235 314 1275 475 1293 344 b 1240 274 1219 304 1224 279 b 1283 197 1269 264 1283 239 b 1232 119 1283 154 1267 129 b 1221 82 1215 115 1208 94 b 1188 -50 1265 43 1251 -47 b 1178 -89 1171 -51 1163 -78 b 1199 -165 1201 -107 1208 -132 b 1136 -214 1188 -197 1167 -214 l 840 -214 b 678 -179 801 -214 747 -203 b 522 -142 608 -156 557 -143 m 426 435 b 468 394 450 435 468 418 l 468 -168 b 426 -208 468 -192 450 -208 l 181 -208 b 139 -168 157 -208 139 -192 l 139 394 b 181 435 139 418 157 435 "},"n":{"ha":1525,"x_min":0,"x_max":0,"o":"m 592 168 b 594 211 617 181 618 194 b 474 397 521 263 485 313 l 446 649 b 528 861 436 739 463 810 b 763 936 592 911 669 936 b 999 861 856 936 933 911 b 1081 649 1064 810 1090 739 l 1051 397 b 936 214 1043 324 1004 263 b 935 168 914 199 908 181 l 1286 -1 b 1261 -229 1411 -62 1438 -229 l 264 -229 b 239 -1 92 -229 113 -62 "},"o":{"ha":1661,"x_min":0,"x_max":0,"o":"m 1050 99 b 990 -79 1010 46 990 -14 b 1040 -243 990 -136 1007 -192 l 264 -243 b 239 -15 92 -243 113 -76 l 592 154 b 594 197 617 167 618 181 b 474 383 521 249 485 299 l 446 635 b 528 847 436 725 463 796 b 763 922 592 897 669 922 b 999 847 856 922 933 897 b 1081 635 1064 796 1090 725 l 1051 383 b 936 200 1043 310 1004 249 b 935 154 914 185 908 167 m 1289 -312 b 1454 -244 1354 -312 1408 -290 b 1522 -79 1500 -199 1522 -144 b 1454 86 1522 -15 1500 40 b 1289 154 1408 132 1354 154 b 1125 86 1225 154 1171 132 b 1056 -79 1079 40 1056 -15 b 1125 -244 1056 -144 1079 -199 b 1289 -312 1171 -290 1225 -312 m 1367 42 b 1392 43 1374 51 1382 51 l 1413 22 b 1411 -6 1419 14 1419 4 l 1336 -81 l 1411 -158 b 1413 -183 1419 -167 1419 -175 l 1392 -204 b 1367 -203 1383 -211 1375 -211 l 1289 -128 l 1211 -203 b 1186 -204 1203 -211 1194 -211 l 1165 -183 b 1167 -158 1158 -175 1158 -167 l 1242 -81 l 1167 -6 b 1165 22 1158 4 1158 14 l 1186 43 b 1211 42 1194 50 1203 50 l 1289 -35 "},"p":{"ha":1661,"x_min":0,"x_max":0,"o":"m 1050 99 b 990 -79 1010 46 990 -14 b 1040 -243 990 -136 1007 -192 l 264 -243 b 239 -15 92 -243 113 -76 l 592 154 b 594 197 617 167 618 181 b 474 383 521 249 485 299 l 446 635 b 528 847 436 725 463 796 b 763 922 592 897 669 922 b 999 847 856 922 933 897 b 1081 635 1064 796 1090 725 l 1051 383 b 936 200 1043 310 1004 249 b 935 154 914 185 908 167 m 1289 -312 b 1454 -244 1354 -312 1408 -290 b 1522 -79 1500 -199 1522 -144 b 1454 86 1522 -15 1500 40 b 1289 154 1408 132 1354 154 b 1125 86 1225 154 1171 132 b 1056 -79 1079 40 1056 -15 b 1125 -244 1056 -144 1079 -199 b 1289 -312 1171 -290 1225 -312 m 1307 -203 b 1211 -208 1289 -242 1235 -246 l 1142 -103 b 1147 -78 1136 -92 1138 -83 l 1171 -62 b 1194 -67 1181 -56 1189 -57 l 1257 -162 l 1364 39 b 1386 46 1368 50 1375 53 l 1413 32 b 1419 10 1424 28 1426 19 "},"q":{"ha":1661,"x_min":0,"x_max":0,"o":"m 1050 99 b 990 -79 1010 46 990 -14 b 1040 -243 990 -136 1007 -192 l 264 -243 b 239 -15 92 -243 113 -76 l 592 154 b 594 197 617 167 618 181 b 474 383 521 249 485 299 l 446 635 b 528 847 436 725 463 796 b 763 922 592 897 669 922 b 999 847 856 922 933 897 b 1081 635 1064 796 1090 725 l 1051 383 b 936 200 1043 310 1004 249 b 935 154 914 185 908 167 m 1289 -312 b 1454 -244 1354 -312 1408 -290 b 1522 -79 1500 -199 1522 -144 b 1454 86 1522 -15 1500 40 b 1289 154 1408 132 1354 154 b 1125 86 1225 154 1171 132 b 1056 -79 1079 40 1056 -15 b 1125 -244 1056 -144 1079 -199 b 1289 -312 1171 -290 1225 -312 m 1424 -50 b 1440 -67 1435 -50 1440 -56 l 1440 -94 b 1422 -112 1440 -107 1435 -112 l 1321 -112 l 1319 -215 b 1303 -232 1319 -228 1318 -232 l 1275 -232 b 1258 -215 1260 -232 1258 -228 b 1257 -112 1258 -175 1258 -153 b 1154 -111 1217 -111 1194 -111 b 1138 -94 1142 -111 1138 -110 l 1138 -67 b 1154 -50 1138 -51 1142 -50 l 1257 -49 l 1257 53 b 1275 71 1257 65 1263 71 l 1303 71 b 1319 54 1318 71 1319 67 l 1319 -50 "},"r":{"ha":1572,"x_min":0,"x_max":0,"o":"m 1332 -10 b 1306 -243 1458 -64 1489 -243 l 269 -243 b 243 -10 86 -243 117 -64 l 567 128 b 558 174 590 138 586 172 b 307 249 468 181 383 206 b 285 285 292 256 285 268 b 293 310 285 294 288 303 b 436 599 353 392 407 510 b 490 732 451 642 469 686 b 788 947 547 861 621 943 b 1086 732 953 943 1028 861 b 1200 451 1128 642 1149 558 b 1282 310 1225 397 1253 350 b 1290 285 1288 303 1290 294 b 1268 249 1290 268 1283 256 b 1017 174 1192 206 1107 181 b 1008 128 989 172 985 138 "},"s":{"ha":2099,"x_min":0,"x_max":0,"o":"m 592 154 b 594 197 617 167 618 181 b 474 383 521 249 485 299 l 446 635 b 528 847 436 725 463 796 b 763 922 592 897 669 922 b 999 847 856 922 933 897 b 1081 635 1064 796 1090 725 l 1051 383 b 936 200 1043 310 1004 249 b 935 154 914 185 908 167 l 1286 -15 b 1261 -243 1411 -76 1438 -243 l 264 -243 b 239 -15 92 -243 113 -76 m 1896 156 b 1879 10 1976 117 1990 10 l 1368 10 b 1314 43 1353 22 1335 33 l 1175 110 b 1228 156 1188 129 1204 144 l 1453 264 b 1454 292 1465 269 1467 282 b 1376 410 1408 324 1382 363 l 1358 571 b 1411 706 1351 628 1369 674 b 1561 754 1453 738 1503 754 b 1713 706 1621 754 1671 738 b 1765 571 1753 674 1771 628 l 1746 410 b 1672 293 1740 361 1715 322 b 1671 264 1660 283 1656 271 "},"t":{"ha":2693,"x_min":0,"x_max":0,"o":"m 1188 154 b 1190 197 1213 167 1214 181 b 1069 383 1117 249 1081 299 l 1042 635 b 1124 847 1032 725 1058 796 b 1358 922 1188 897 1265 922 b 1594 847 1451 922 1529 897 b 1676 635 1660 796 1686 725 l 1647 383 b 1532 200 1639 310 1600 249 b 1531 154 1510 185 1504 167 l 1882 -15 b 1857 -243 2007 -76 2033 -243 l 860 -243 b 835 -15 688 -243 708 -76 m 807 43 b 751 10 788 33 769 22 l 225 10 b 207 160 106 10 126 125 l 417 249 b 411 278 432 256 428 278 b 249 326 353 283 299 300 b 235 350 239 331 235 339 b 240 367 235 357 236 363 b 314 504 267 403 290 449 b 368 640 336 558 354 604 b 558 776 394 713 458 776 b 750 640 658 776 722 713 b 804 504 763 604 781 558 b 876 367 826 449 850 403 b 882 350 881 363 882 357 b 868 326 882 339 878 331 b 706 278 818 300 764 283 b 700 249 689 278 685 256 l 910 160 b 960 118 931 150 947 136 m 2492 156 b 2475 10 2572 117 2586 10 l 1964 10 b 1910 43 1949 22 1931 33 l 1771 110 b 1824 156 1783 129 1800 144 l 2049 264 b 2050 292 2061 269 2063 282 b 1972 410 2004 324 1978 363 l 1954 571 b 2007 706 1947 628 1965 674 b 2157 754 2049 738 2099 754 b 2308 706 2217 754 2267 738 b 2361 571 2349 674 2367 628 l 2342 410 b 2268 293 2336 361 2311 322 b 2267 264 2256 283 2251 271 "},"u":{"ha":2671,"x_min":0,"x_max":0,"o":"m 1181 154 b 1183 197 1206 167 1207 181 b 1063 383 1110 249 1074 299 l 1035 635 b 1117 847 1025 725 1051 796 b 1351 922 1181 897 1258 922 b 1588 847 1444 922 1522 897 b 1669 635 1653 796 1679 725 l 1640 383 b 1525 200 1632 310 1593 249 b 1524 154 1503 185 1497 167 l 1875 -15 b 1850 -243 2000 -76 2026 -243 l 853 -243 b 828 -15 681 -243 701 -76 m 444 264 b 443 293 460 271 456 283 b 369 410 400 322 375 361 l 350 571 b 404 706 344 628 363 674 b 554 754 444 738 494 754 b 704 706 613 754 663 738 b 757 571 746 674 764 628 l 739 410 b 661 292 733 363 707 324 b 663 264 649 282 650 269 l 888 156 b 940 110 911 144 928 129 l 801 43 b 747 10 781 33 763 22 l 236 10 b 219 156 125 10 139 117 m 2485 156 b 2468 10 2565 117 2579 10 l 1957 10 b 1903 43 1942 22 1924 33 l 1764 110 b 1817 156 1776 129 1793 144 l 2042 264 b 2043 292 2054 269 2056 282 b 1965 410 1997 324 1971 363 l 1947 571 b 2000 706 1940 628 1958 674 b 2150 754 2042 738 2092 754 b 2301 706 2210 754 2260 738 b 2354 571 2342 674 2360 628 l 2335 410 b 2261 293 2329 361 2304 322 b 2260 264 2249 283 2244 271 "},"v":{"ha":1561,"x_min":0,"x_max":0,"o":"m 1264 853 b 1399 597 1418 853 1451 719 b 1151 322 1356 493 1272 401 b 815 72 1097 178 969 83 l 815 -122 l 963 -122 b 981 -140 975 -122 981 -128 l 981 -169 b 963 -187 981 -182 975 -187 l 600 -187 b 582 -169 588 -187 582 -182 l 582 -140 b 600 -122 582 -128 588 -122 l 749 -122 l 749 72 b 413 321 594 83 467 176 b 163 597 289 400 206 493 b 297 853 110 719 143 853 l 383 853 l 383 911 b 444 972 383 944 410 972 l 1119 972 b 1181 911 1153 972 1181 944 l 1181 853 m 224 622 b 388 419 254 549 308 482 b 383 493 385 443 383 467 l 383 786 l 297 786 b 224 622 194 786 190 700 m 1338 622 b 1264 786 1371 700 1367 786 l 1181 786 l 1181 493 b 1175 421 1181 464 1179 440 b 1338 622 1254 482 1308 549 m 1122 -243 b 1140 -261 1135 -243 1140 -249 l 1140 -292 b 1122 -310 1140 -304 1135 -310 l 440 -310 b 422 -292 428 -310 422 -304 l 422 -261 b 440 -243 422 -249 428 -243 "},"w":{"ha":1113,"x_min":0,"x_max":0,"o":"m 914 699 b 974 636 947 699 975 671 b 814 -253 975 360 814 -19 b 753 -312 814 -286 786 -312 l 360 -312 b 299 -253 328 -312 300 -286 b 139 636 297 -19 140 360 b 200 699 139 671 167 699 l 431 699 l 431 817 l 186 957 b 194 1007 167 967 176 981 b 219 1014 201 1017 210 1019 l 465 872 b 497 819 486 860 497 843 l 497 699 m 206 632 b 238 382 208 556 219 472 b 431 356 300 350 365 342 l 431 632 m 883 415 b 908 632 897 486 906 558 l 497 632 l 497 375 b 557 397 508 379 528 386 b 618 421 585 408 606 417 b 676 438 631 425 650 431 b 883 415 744 454 800 447 "},"x":{"ha":942,"x_min":0,"x_max":0,"o":"m 803 110 b 139 110 803 -329 139 -326 l 139 575 b 803 575 139 1008 803 1008 m 504 721 b 486 739 504 733 499 739 l 456 739 b 438 721 443 739 438 733 l 438 497 b 456 478 438 485 443 478 l 486 478 b 504 497 499 478 504 485 "},"y":{"ha":1424,"x_min":0,"x_max":0,"o":"m 551 564 b 551 697 528 608 536 664 b 586 761 558 714 571 735 b 622 865 613 806 624 840 b 574 963 621 890 604 922 b 576 988 567 972 567 981 l 600 1006 b 626 1003 610 1013 619 1013 b 690 867 667 949 689 904 b 642 726 692 829 676 782 b 606 638 619 692 611 675 b 613 588 601 618 604 601 b 603 564 617 576 614 568 l 575 553 b 551 564 564 549 556 553 m 743 564 b 778 761 713 640 735 696 b 814 865 804 806 815 840 b 765 963 813 890 796 922 b 769 988 758 972 760 981 l 793 1006 b 818 1003 803 1014 811 1013 b 882 867 858 949 881 904 b 833 726 883 829 868 782 b 804 588 806 681 785 640 b 794 564 808 576 806 568 l 767 553 b 743 564 756 549 747 553 m 1049 81 b 621 -146 975 -100 786 -183 b 307 258 454 -117 307 28 l 307 433 b 368 494 307 468 333 494 l 1019 494 b 1081 433 1054 494 1081 468 l 1081 399 l 1125 399 b 1243 349 1175 399 1214 382 b 1286 240 1272 315 1286 279 b 1243 131 1286 200 1272 164 b 1125 81 1214 97 1175 81 m 1081 258 b 1069 147 1081 219 1076 182 l 1125 147 b 1210 193 1165 147 1193 163 b 1210 286 1225 224 1225 254 b 1125 332 1193 317 1165 332 l 1081 332 m 1231 -221 b 1249 -239 1243 -221 1249 -226 l 1249 -269 b 1231 -287 1249 -282 1243 -287 l 157 -287 b 139 -269 144 -287 139 -282 l 139 -239 b 157 -221 139 -226 144 -221 "},"z":{"ha":1421,"x_min":0,"x_max":0,"o":"m 1142 622 b 1140 690 1188 622 1190 690 l 318 690 b 388 832 318 747 342 794 b 546 871 433 869 486 882 l 1189 753 b 1282 644 1251 742 1282 706 l 1282 -82 b 1224 -140 1282 -114 1256 -140 l 369 -140 b 207 -72 306 -140 251 -118 b 139 90 161 -26 139 28 l 139 397 b 365 622 139 532 231 622 m 311 283 b 311 190 286 257 285 215 b 403 190 338 165 376 165 b 404 283 429 215 429 257 b 311 283 379 310 336 310 "}}}
